<svg xmlns="http://www.w3.org/2000/svg" viewBox="0 0 512 512"><defs><clipPath id="r"><rect width="512" height="512" rx="112"/></clipPath></defs><g clip-path="url(#r)"><rect width="512" height="512" fill="#fef1da"/>
<path d="M0 0H190C170 70 90 90 0 130Z" fill="#a8d08c"/>
<path d="M300 512C320 430 400 400 512 420V512Z" fill="#a8d08c"/>
<path d="M0 360C60 330 110 370 100 430C95 480 40 500 0 490Z" fill="#6cd0ec"/>
<path d="M60 400C150 300 120 200 260 150S440 60 512 90" fill="none" stroke="#6cd0ec" stroke-width="18" stroke-linecap="round"/>
<path d="M120 512C170 400 300 380 340 250S400 60 440 0" fill="none" stroke="#f6b04a" stroke-width="22" stroke-linecap="round"/>
<path d="M0 250C140 230 230 330 340 300S470 200 512 220" fill="none" stroke="#f08868" stroke-width="16" stroke-linecap="round"/>
<ellipse cx="256" cy="386" rx="52" ry="12" fill="#4a3560" opacity=".25"/>
<path d="M256 376C256 376 176 292 176 216A80 80 0 0 1 336 216C336 292 256 376 256 376Z" fill="#4a3560" stroke="#fef1da" stroke-width="10" stroke-linejoin="round"/>
<circle cx="256" cy="216" r="30" fill="#fef1da"/></g></svg>